<svg width="144" height="144" viewBox="0 0 144 144" fill="none" xmlns="http://www.w3.org/2000/svg">
<path d="M25.8047 81.2927V63.2415C26.3841 62.7478 27.0922 62.9732 27.7253 62.9732C43.1224 62.9732 58.5195 62.9732 73.9166 62.9732C75.7621 62.9732 76.2986 63.4991 76.245 65.3343C76.127 70.1422 76.1591 74.9931 76.245 79.7688C76.245 81.1854 75.9016 81.7113 74.3995 81.6898C68.7664 81.604 63.144 81.6147 57.5217 81.6898C56.1053 81.6898 55.4508 81.1962 55.3757 79.8332C55.3114 78.9472 55.3114 78.0577 55.3757 77.1717C55.5045 75.5833 56.5345 75.0253 57.9401 75.0253C60.5367 74.9287 63.1226 75.0253 65.7191 74.9609C67.9187 74.9072 68.1655 74.6067 68.1655 72.2779C68.1655 69.949 67.8329 69.3158 65.6548 69.3158C61.5865 69.1585 57.5125 69.2481 53.4551 69.5841C49.0237 70.1315 44.6031 68.9724 40.161 69.2622C39.088 69.3266 38.0902 69.2622 37.0494 69.2622C34.249 69.2622 33.9914 69.5734 34.0558 72.3315C34.1202 74.5852 34.3777 74.8643 36.6524 74.9287C38.9271 74.9931 41.234 74.875 43.5194 75.0038C44.6889 75.0682 45.8048 75.3579 46.1696 76.6243C46.6757 78.0938 46.6067 79.7004 45.9765 81.121C45.7512 81.5718 45.2683 81.604 44.807 81.604C38.5945 81.604 32.3713 81.604 26.1588 81.604C26.0407 81.561 25.9334 81.3893 25.8047 81.2927Z" fill="#2B303A"/>
<path d="M94.9892 55.6436C95.9763 60.3227 96.7703 64.5082 97.7574 68.6507C100.622 80.6921 104.195 92.4329 111.309 102.8C114.523 107.787 118.66 112.115 123.498 115.55C124.786 116.43 124.571 116.934 123.573 117.793C122.762 118.548 122.013 119.366 121.331 120.239C119.517 122.472 119.528 122.493 117.339 120.755C108.455 113.671 102.94 104.26 98.6265 93.9246C95.419 86.0713 92.9058 77.9518 91.1158 69.6596C90.835 68.5177 90.9023 67.3179 91.3089 66.2146C92.5535 62.8769 93.6694 59.5178 94.9892 55.6436Z" fill="#FBB03B"/>
<path d="M73.3901 43.1618C73.3901 47.6692 73.3901 52.1874 73.3901 56.7056C73.3901 57.9183 73.1219 58.3368 71.8236 58.3154C67.0167 58.2402 62.1668 58.3154 57.3921 58.3154C56.2655 58.3154 55.9114 58.0578 55.89 56.8665C55.8149 52.445 55.7719 52.4879 60.1819 52.4235C62.0059 52.4235 64.3772 53.2391 65.5467 52.0693C66.7162 50.8995 65.8686 48.5492 65.8793 46.7033C65.8793 43.0008 65.8149 39.2982 65.8793 35.5957C65.8793 34.0932 65.4394 33.7391 64.0338 33.8035C61.7377 33.9108 59.4415 33.8035 57.1561 33.8035C56.2119 33.8035 55.9329 33.5781 55.8792 32.5907C55.6325 27.8794 55.5895 27.8794 60.3213 27.8794C64.0982 27.8794 67.8321 27.9438 71.6519 27.8794C73.0038 27.8794 73.4008 28.2014 73.3794 29.5858C73.3257 34.1362 73.3901 38.6436 73.3901 43.1618Z" fill="#2B303A"/>
<path d="M29.1094 43.0651C29.1094 38.5577 29.1094 34.0395 29.1094 29.5321C29.1094 28.2657 29.4849 27.9008 30.7296 27.9223C35.1717 27.9867 39.603 27.9759 44.0451 27.9223C45.1825 27.9223 45.7404 28.0725 45.7619 29.4569C45.7619 33.9 45.8692 33.9 41.3841 33.9C36.4056 33.9 36.4056 33.9 36.4056 38.9118C36.4056 42.9042 36.4056 46.8965 36.4056 50.8888C36.4056 52.1229 36.706 52.5737 37.9936 52.5093C40.0644 52.4127 42.1352 52.5093 44.2061 52.5093C45.279 52.5093 45.7189 52.7454 45.7511 53.9581C45.8692 58.3797 45.9228 58.3797 41.4592 58.3797C37.9077 58.3797 34.3562 58.3046 30.8047 58.3797C29.3991 58.3797 29.0986 57.9826 29.1201 56.6519C29.163 52.08 29.1094 47.5726 29.1094 43.0651Z" fill="#2B303A"/>
<path d="M29.4629 104.184L33.8621 98.4103C34.0199 98.2097 34.2219 98.0482 34.4522 97.9381C34.6898 97.8401 34.9471 97.7997 35.2033 97.8201C37.4672 97.8201 39.7312 97.8201 42.3063 97.8201L39.9351 101.297C48.1969 103.787 55.8901 107.329 63.6262 110.774C66.7164 112.147 69.6349 113.907 72.6928 115.378C74.3559 116.172 74.0877 116.719 72.8645 117.76C68.8087 121.194 68.8731 121.184 64.3451 118.737C53.2162 112.768 41.534 107.894 29.4629 104.184Z" fill="#2B303A"/>
<path d="M86.8243 49.3328C86.8243 49.0645 86.7277 48.9894 86.7492 48.925C87.393 46.6069 87.3715 43.559 88.8951 42.1638C90.4188 40.7687 93.4016 41.8097 95.7729 41.7882C104.41 41.7346 113.048 41.7882 121.685 41.6809C123.273 41.6809 123.831 41.9921 123.831 43.7092C123.756 49.3328 123.831 49.3328 118.219 49.3328H86.8243Z" fill="#D64933"/>
<path d="M42.2635 90.2861C48.6154 89.9749 54.9567 89.7173 61.3087 89.288C63.0683 89.1807 63.2722 89.7495 62.9718 91.252C62.1778 95.0941 62.2314 95.1799 58.3043 95.4053C46.8343 96.0814 35.2677 96.6824 23.7655 97.38C22.2204 97.4766 21.5552 97.1439 21.3835 95.4911C20.9114 91.1983 20.8363 91.1983 25.214 91.0588L42.2742 90.3183L42.2635 90.2861Z" fill="#D64933"/>
<path d="M106.921 89.5778C104.99 86.2463 103.797 82.5389 103.423 78.7063C103.23 76.5599 104.324 74.2847 104.807 72.0632C106.176 65.7829 107.215 59.4352 107.919 53.0461C108.047 51.8441 108.337 51.4792 109.646 51.5543C115.719 51.8977 115.676 51.8441 114.754 57.9398C113.385 67.8109 111.1 77.5331 107.929 86.9806C107.65 87.7855 107.307 88.6334 106.921 89.5778Z" fill="#0C7C59"/>
<path d="M96.8022 95.2012C97.9503 98.0773 98.9482 100.717 100.021 103.357C100.322 104.119 99.7851 104.624 99.4525 105.16C95.0344 112.251 89.3538 118.471 82.6927 123.512C81.5017 124.403 81.0403 124.156 80.4502 122.997C79.9344 122.102 79.3459 121.252 78.6905 120.454C76.8343 118.039 76.8343 118.05 79.3665 116.161C86.1241 111.121 91.6888 104.653 95.6649 97.2188C95.9761 96.6178 96.3087 96.0597 96.8022 95.2012Z" fill="#0C7C59"/>
<path d="M55.3213 105.805C56.998 104.515 58.5564 103.078 59.978 101.512C63.8299 97.1331 64.9995 91.853 64.6883 86.2831C64.5703 84.1367 65.2462 83.5679 67.36 83.6537C71.6519 83.8254 71.5875 83.6537 71.6519 87.9465C71.727 95.1906 69.6991 101.598 64.5059 106.856C64.1882 107.296 63.729 107.613 63.2053 107.753C62.6816 107.894 62.1255 107.85 61.6303 107.629C59.6454 106.953 57.5638 106.459 55.3213 105.805Z" fill="#0EB1D2"/>
<path d="M19.6562 117.975C27.5618 116.736 35.3325 114.753 42.8646 112.051C43.4012 111.827 43.9785 111.717 44.5599 111.729C45.1388 111.738 45.7092 111.87 46.2337 112.115C48.3153 112.985 50.4505 113.746 52.9183 114.691C50.1421 116.15 47.2406 117.357 44.2487 118.297C37.6804 120.496 30.9647 122.229 24.152 123.48C23.476 123.609 22.9717 123.706 22.5425 122.858C21.7271 121.237 20.697 119.756 19.6562 117.975Z" fill="#0EB1D2"/>
<path d="M93.6375 51.1784C91.9106 56.9404 89.8176 62.5862 87.3713 68.0813C86.5774 69.8307 85.6331 71.4941 84.7962 73.222C84.131 74.6064 83.4121 75.2932 82.2318 73.662C81.9108 73.2694 81.5514 72.9098 81.1589 72.5888C78.1116 69.7985 78.1009 69.7877 80.0215 66.2247C82.3062 61.8434 84.188 57.2634 85.6439 52.5414C85.9872 51.4682 86.4057 51.1462 87.4572 51.1784C89.3993 51.2321 91.4057 51.1784 93.6375 51.1784Z" fill="#0EB1D2"/>
<path d="M51.1258 39.8564C54.8919 39.8564 58.6366 39.9101 62.4349 39.8564C63.8298 39.8564 64.1839 40.2535 64.1731 41.6058C64.1731 45.5766 64.2375 45.5766 60.2997 45.5766C53.4971 45.5766 46.6837 45.5766 39.9133 45.5766C38.5399 45.5766 38.1965 45.2224 38.2073 43.8595C38.2073 39.8564 38.2073 39.8564 42.0592 39.8564H51.1258Z" fill="#FBB03B"/>
<path d="M92.8117 39.8561C89.0563 39.8561 89.0456 39.8561 89.8074 36.1429C90.7087 31.8501 91.5563 27.4714 92.0606 23.082C92.2537 21.4722 92.6615 20.3454 94.6035 21.2254C94.7451 21.2755 94.8934 21.3045 95.0435 21.3112C99.7967 22.0517 99.7967 22.0517 98.8954 26.8597C98.316 29.9827 97.8225 33.1057 97.1894 36.218C96.4812 39.8561 96.4491 39.8561 92.8117 39.8561Z" fill="#0EB1D2"/>
<path d="M47.4141 28.7273C47.4141 26.3019 47.4784 23.8657 47.4141 21.4403C47.4141 20.2383 47.8218 20.0022 48.9269 19.9808C54.1738 19.8627 54.1738 19.8198 54.1738 25.0033C54.1738 28.7703 54.1738 32.5157 54.1738 36.2827C54.1738 37.4525 53.9699 37.9354 52.6394 37.9676C47.4784 38.0856 47.4784 38.1393 47.4892 32.945V28.7381L47.4141 28.7273Z" fill="#0C7C59"/>
<path d="M54.1415 54.2911C54.1415 56.0619 54.0664 57.8434 54.1415 59.6034C54.2059 60.8161 53.7231 61.0415 52.6179 61.0844C47.4569 61.2347 47.4569 61.2776 47.4462 56.0511C47.4462 53.6901 47.4462 51.3291 47.3711 48.968C47.3711 47.809 47.693 47.5085 48.8518 47.4763C54.0342 47.3475 54.0342 47.3046 54.1415 52.5203V54.2911Z" fill="#0C7C59"/>
<path d="M40.3965 88.88C43.83 83.0526 46.212 83.5892 50.976 83.5892C50.4395 86.1219 48.3257 88.88 47.2742 88.88C44.9836 89.0143 42.6871 89.0143 40.3965 88.88Z" fill="#2B303A"/>
<path d="M22.9928 39.8347C27.9285 39.8991 27.2847 39.4055 27.2847 42.7002C27.2847 45.5442 27.2847 45.5442 23.2074 45.5442C19.6988 45.5442 19.9885 45.5442 19.6237 42.2602C19.4091 39.5664 21.2332 39.6308 22.9928 39.8347Z" fill="#FBB03B"/>
<path d="M78.026 45.5444C75.1611 45.5444 75.1611 45.5444 75.1611 42.5824C75.1611 39.8457 75.1611 39.8457 78.4873 39.8457C81.2449 39.8457 81.2663 39.8457 81.2341 43.1512C81.1698 45.9307 81.7492 45.5015 78.026 45.5444Z" fill="#FBB03B"/>
<path d="M81.0615 91.1662C81.0615 94.0746 78.0035 95.3088 73.3254 94.5897C73.0933 94.5715 72.8635 94.532 72.6387 94.4717C72.7889 92.658 73.7116 90.7691 73.4219 89.1057C73.2288 88.0969 78.2396 88.29 80.3855 88.6335C82.2417 88.9232 80.4606 90.4794 81.0615 91.1662Z" fill="#D64933"/>
<path d="M47.4785 75.841V75.6156C47.4785 70.2496 47.4785 70.2496 52.9399 70.6682C53.9378 70.7433 54.1631 71.076 54.1524 71.9882C54.1524 74.7213 54.1524 77.4544 54.1524 80.1875C54.1524 81.1319 53.9163 81.5934 52.9292 81.4538C52.8545 81.4431 52.7786 81.4431 52.7039 81.4538C47.4785 81.6899 47.4785 81.6899 47.4785 75.841Z" fill="#0C7C59"/>
</svg>
